<svg width="76" height="23" viewBox="0 0 76 23" fill="none" xmlns="http://www.w3.org/2000/svg">
<path d="M11.21 19.978C11.21 20.594 10.946 20.99 10.462 21.122C8.262 21.782 5.138 22.09 1.09 22.09C0.518 22.09 0.254 21.826 0.254 21.254V1.894C0.254 1.322 0.54 1.014 1.134 1.014H2.696C3.268 1.014 3.576 1.3 3.576 1.828V4.512H7.91V1.85C7.91 1.3 8.196 1.014 8.812 1.014H10.308C10.902 1.014 11.21 1.3 11.21 1.85V19.978ZM3.554 19.164C5.05 19.164 6.502 19.01 7.91 18.658V7.548H3.554V19.164ZM17.26 6.624C17.876 6.624 18.206 6.91 18.206 7.438V9.132C18.206 9.748 17.898 10.056 17.304 10.056H16.292V21.738C16.292 22.266 16.006 22.53 15.456 22.53H13.586C13.014 22.53 12.75 22.288 12.75 21.76V1.432C12.75 0.859999 13.014 0.574 13.586 0.574H15.39C15.984 0.574 16.292 0.859999 16.292 1.41V6.624H17.26ZM20.2795 7.9C20.2795 7.262 20.6095 6.932 21.2915 6.932H32.7975V4.182H21.2035C20.5875 4.182 20.2795 3.852 20.2795 3.192V2.004C20.2795 1.366 20.5875 1.036 21.2035 1.036H35.1515C35.8335 1.036 36.1855 1.344 36.1855 1.938V9.066C36.1855 9.704 35.8335 10.012 35.1735 10.012H23.7775V13.444C27.8475 13.488 31.6755 13.07 35.2615 12.19C35.8555 12.08 36.1635 12.3 36.1635 12.85V14.346C36.1195 14.962 35.7895 15.336 35.1735 15.468C33.8095 15.886 32.0495 16.194 29.9375 16.414V18.812H35.2615C35.8555 18.812 36.1635 19.098 36.1635 19.67V21.188C36.1635 21.804 35.8555 22.112 35.2615 22.112H21.2695C20.6095 22.112 20.2795 21.804 20.2795 21.144V19.868C20.2795 19.164 20.6095 18.812 21.2915 18.812H26.4615V16.7C24.7675 16.788 23.0515 16.81 21.3355 16.81C20.6315 16.81 20.2795 16.502 20.2795 15.864V7.9Z" fill="black"/>
<path d="M48.5445 21.694C48.5445 22.266 48.2585 22.552 47.7305 22.552H45.6845C45.1565 22.552 44.9145 22.266 44.9145 21.65V18.548H39.6125C39.0185 18.548 38.7325 18.262 38.7325 17.646V16.106C38.7325 15.49 39.0405 15.16 39.7005 15.16H53.9565C54.5725 15.16 54.9025 15.468 54.9025 16.084V17.646C54.9025 18.262 54.5725 18.548 53.9125 18.548H48.5445V21.694ZM54.9025 7.218C54.9025 11.882 52.1965 14.214 46.8065 14.214C41.4165 14.214 38.7325 11.882 38.7325 7.218C38.7325 2.686 41.4825 0.397999 46.9825 0.397999C52.2625 0.397999 54.9025 2.686 54.9025 7.218ZM46.7845 11.068C49.8205 11.068 51.3385 9.858 51.3385 7.416C51.3385 4.864 49.8865 3.566 46.9825 3.566C43.8585 3.566 42.2965 4.864 42.2965 7.416C42.2965 9.858 43.7925 11.068 46.7845 11.068ZM73.9459 19.472C74.4959 19.472 74.7819 19.736 74.7819 20.242V21.694C74.7819 22.266 74.4739 22.53 73.9019 22.53H58.5679C57.9959 22.53 57.7099 22.288 57.7099 21.76V16.678C57.7099 16.172 57.9739 15.908 58.5019 15.908H60.3719C60.8999 15.908 61.1639 16.172 61.1639 16.678V19.472H73.9459ZM74.6939 5.612C75.2219 5.612 75.5079 5.898 75.5079 6.448V8.23C75.5079 8.78 75.2219 9.044 74.6719 9.044H73.6159V13.95C73.6159 14.522 73.3079 14.808 72.7139 14.808H70.9539C70.3379 14.808 70.0519 14.544 70.0519 14.016V1.344C70.0519 0.837999 70.3379 0.574 70.9319 0.574H72.7579C73.3299 0.574 73.6159 0.837999 73.6159 1.344V5.612H74.6939ZM62.5719 3.06C66.7959 2.708 68.7319 6.294 68.3799 13.862C68.3799 14.5 68.0279 14.83 67.3679 14.83H65.7839C65.2119 14.83 64.9479 14.544 64.9479 13.972C65.2119 8.274 64.0899 5.766 61.5819 6.448C61.0979 8.626 60.8559 11.112 60.8559 13.928C60.8559 14.544 60.5259 14.83 59.8659 14.83H58.2819C57.6879 14.83 57.4019 14.566 57.4019 14.016C57.4019 9.022 58.1059 5.018 59.5139 2.004C59.8659 1.366 60.3499 1.036 60.9659 1.036H62.1319C62.8799 1.036 63.1879 1.3 63.0119 1.828L62.5719 3.06Z" fill="#2D88FF"/>
</svg>
